<?xml version="1.0" standalone="no"?>
<!DOCTYPE svg PUBLIC "-//W3C//DTD SVG 20010904//EN" "http://www.w3.org/TR/2001/REC-SVG-20010904/DTD/svg10.dtd">
<!-- Created using Karbon, part of Calligra: http://www.calligra.org/karbon -->
<svg xmlns="http://www.w3.org/2000/svg" xmlns:xlink="http://www.w3.org/1999/xlink" width="595.277pt" height="841.891pt">
<defs>
  <linearGradient id="gradient0" gradientTransform="" gradientUnits="objectBoundingBox" x1="0.16981132075" y1="1.03298969072" x2="0.83228511530" y2="1.02886597938" spreadMethod="pad">
   <stop stop-color="#ee3145" offset="1.00000000000" stop-opacity="1.00000000000"/>
  </linearGradient>
  <linearGradient id="gradient1" gradientTransform="" gradientUnits="objectBoundingBox" x1="0.32219570406" y1="0.08982645221" x2="0.47016706444" y2="0.10187399140" spreadMethod="pad">
   <stop stop-color="#ffffff" offset="0.14887567847" stop-opacity="1.00000000000"/>
   <stop stop-color="#ffffff" offset="1.00000000000" stop-opacity="1.00000000000"/>
  </linearGradient>
  <linearGradient id="gradient2" gradientTransform="" gradientUnits="objectBoundingBox" x1="0.08554572271" y1="0.27245508982" x2="0.88200589971" y2="0.25449101796" spreadMethod="pad">
   <stop stop-color="#000000" offset="0.00000000000" stop-opacity="1.00000000000"/>
  </linearGradient>
  <linearGradient id="gradient3" gradientTransform="" gradientUnits="objectBoundingBox" x1="0.08554572271" y1="0.27245508982" x2="0.88200589971" y2="0.25449101796" spreadMethod="pad">
   <stop stop-color="#ee3145" offset="0.00000000000" stop-opacity="1.00000000000"/>
  </linearGradient>
  <linearGradient id="gradient4" gradientTransform="" gradientUnits="objectBoundingBox" x1="0.20209059233" y1="0.25306122449" x2="0.52264808362" y2="0.40816326531" spreadMethod="pad">
   <stop stop-color="#000000" offset="0.00000000000" stop-opacity="1.00000000000"/>
  </linearGradient>
  <linearGradient id="gradient5" gradientTransform="" gradientUnits="objectBoundingBox" x1="0.20209059233" y1="0.25306122449" x2="0.52264808362" y2="0.40816326531" spreadMethod="pad">
   <stop stop-color="#cb0133" offset="0.00000000000" stop-opacity="1.00000000000"/>
  </linearGradient>
  <linearGradient id="gradient6" gradientTransform="" gradientUnits="objectBoundingBox" x1="0.66509070691" y1="0.00000000000" x2="0.57912660193" y2="0.88503253796" spreadMethod="pad">
   <stop stop-color="#cb0133" offset="0.00000000000" stop-opacity="1.00000000000"/>
  </linearGradient>
 </defs>
<g id="layer0">
  <path id="Shape" transform="translate(44.1786, 53.8427)" fill="url(#gradient0)" fill-rule="evenodd" stroke="#000000" stroke-width="1.41732529000" d="M6.90291 57.9844L27.6116 26.2311L49.7009 8.28349L88.3572 0L142.2 1.38058L98.0213 15.1864L144.961 12.4252C170.732 6.90291 185.918 4.60194 190.52 5.52233C195.122 6.44271 222.274 6.90291 271.975 6.90291C323.516 8.74368 349.747 9.20388 350.668 8.28349C352.048 6.90291 387.943 12.4252 392.085 12.4252C394.846 12.4252 428.441 12.4252 492.868 12.4252C522.32 11.5048 538.427 11.0447 541.188 11.0447C543.949 11.0447 553.153 7.3631 568.8 0L625.404 11.0447C644.732 34.9747 653.936 46.9398 653.015 46.9398C652.095 46.9398 651.635 78.233 651.635 140.819L650.254 184.998L644.732 274.736L648.873 338.243C648.873 395.307 648.873 424.299 648.873 425.219C648.873 426.14 652.095 453.751 658.537 508.054L658.537 561.897L658.537 624.023L641.97 641.97L636.448 628.165C632.767 630.005 630.926 631.386 630.926 632.306C630.926 633.227 631.386 638.289 632.306 647.493C616.66 653.015 607.916 655.776 606.075 655.776C604.235 655.776 583.526 654.396 543.949 651.635L494.248 650.254C485.044 656.697 479.982 659.918 479.062 659.918C478.141 659.918 453.291 660.378 404.51 661.299C341.004 665.901 308.79 668.202 307.87 668.202C306.949 668.202 271.514 668.662 201.565 669.582L128.394 668.202L98.0213 654.396L52.4621 650.254L51.0815 633.687L23.4699 606.075L16.567 280.258L12.4252 122.872L0 77.3126C0 77.3126 2.30097 70.8699 6.90291 57.9844Z"/>
  <path id="shape0" transform="translate(106.305, 112.821)" fill="url(#gradient1)" fill-rule="evenodd" stroke="#000000" stroke-width="1.41732529000" d="M12.4252 14.1924L53.8427 5.90889C71.3301 10.5108 80.5339 12.8118 81.4543 12.8118C82.3747 12.8118 100.322 11.4312 135.297 8.67005L179.476 0.386563L226.415 3.14773L271.975 1.76714C326.277 1.76714 353.889 1.30695 354.81 0.386563C356.19 -0.994019 418.316 1.76714 421.077 1.76714C422.918 1.76714 443.627 4.06811 483.204 8.67005L523.24 22.4759C537.046 51.9283 543.949 67.1147 543.949 68.0351C543.949 68.9555 545.33 92.4253 548.091 138.445L543.949 240.608C546.71 272.821 547.631 289.388 546.71 290.309C545.33 291.689 550.852 363.48 549.472 367.621C548.551 370.382 548.091 391.091 548.091 429.747L549.472 493.254L530.143 541.575L545.33 541.575L564.658 518.105L566.039 498.777L578.464 494.635C577.543 508.441 577.083 515.804 577.083 516.724C577.083 517.645 569.26 531.911 553.613 559.522C538.887 565.965 531.064 569.646 530.143 570.567C529.223 571.487 513.576 571.947 483.204 571.947L392.085 571.947L374.138 569.186L354.81 570.567L339.827 566.627L303.219 572.972L271.004 564.675L220.893 555.38L150.483 560.903C95.2601 558.142 68.1087 557.221 69.0291 558.142C69.9495 559.062 62.1262 557.221 45.5592 552.619L22.0893 542.955L6.90291 519.485L0 504.299L9.66407 484.971L4.14175 468.404C7.8233 456.439 9.66407 449.536 9.66407 447.695C9.66407 445.854 8.74368 437.571 6.90291 422.845L8.28349 366.241L15.1864 345.532L11.0447 326.204L12.4252 283.406L8.28349 241.988L5.52233 203.332L2.76116 130.161C6.44271 102.55 8.28349 86.4428 8.28349 81.8409C8.28349 74.938 8.28349 74.938 12.4252 14.1924Z"/>
 </g><g id="letterM">
  <path id="shape1" transform="translate(133.916, 169.812)" fill="url(#gradient2)" fill-rule="evenodd" stroke="#000000" stroke-width="1.41732529000" d="M2.76116 1.38058L0 17.9476L11.0447 27.6116C10.1243 46.0194 9.66407 55.6835 9.66407 56.6039C9.66407 57.9844 12.4252 111.827 9.66407 115.969C7.8233 118.73 6.44271 138.058 5.52233 173.953L11.0447 204.326L9.66407 292.683C14.266 366.314 16.1068 402.67 15.1864 401.749C14.266 400.829 12.4252 427.06 9.66407 480.442L38.6563 480.442L66.2679 477.681C81.9145 478.602 90.6582 479.982 92.499 481.823C94.3398 483.664 99.8621 487.806 109.066 494.248L120.111 490.107L124.252 307.87L147.722 341.004L200.184 429.361L273.355 439.025L305.109 393.466L354.81 328.578L374.138 289.922L387.943 298.206L389.324 378.279L389.324 421.077L432.122 487.345L499.771 477.681L488.726 352.048L487.345 263.691L492.868 172.573L498.39 129.775L505.293 74.5514L498.39 8.28349L404.51 5.52233L398.988 31.7534L379.66 75.932L342.384 135.297L310.631 182.237L238.841 281.639L207.087 229.177L179.476 162.909L151.864 91.1184L131.155 34.5145L128.394 5.52233L82.8349 0L52.4621 5.52233C19.3281 0.920388 2.76116 -0.460194 2.76116 1.38058Z"/>
  <path id="shape2" transform="translate(151.864, 183.617)" fill="url(#gradient3)" fill-rule="evenodd" stroke="#000000" stroke-width="1.41732529000" d="M8.28349 0L5.52233 55.2233C5.52233 98.4815 5.06213 121.491 4.14175 124.252C2.76116 128.394 1.38058 175.334 2.76116 179.476C4.14175 183.617 11.0447 231.938 11.0447 233.318C11.0447 234.699 11.0447 317.534 11.0447 320.295C11.0447 323.056 12.4252 387.943 11.0447 389.324C10.1243 390.244 6.44271 411.874 0 454.211L45.5592 454.211L81.4543 459.734L89.7378 394.846L98.0213 302.347L89.7378 285.78L93.8796 244.363L107.685 244.363L127.014 278.878C143.58 316.613 152.324 335.481 153.245 335.481C154.625 335.481 189.14 397.608 187.759 400.369C186.839 402.209 198.344 402.209 222.274 400.369C237 403.13 244.823 404.971 245.744 405.891C246.664 406.811 250.345 399.448 256.788 383.802L277.497 365.854L291.303 343.765L299.586 329.959L313.392 328.578L314.773 318.914L299.586 316.153L320.295 306.489L369.996 234.699L382.421 233.318L386.563 291.303L382.421 401.749L418.316 461.114L466.637 445.928L462.495 371.376L455.592 280.258L439.025 284.4L452.831 258.169L452.831 219.512L459.734 202.946L461.114 147.722L468.017 82.8349L466.637 9.66407L400.369 9.66407L397.608 28.9922L403.13 37.2757L369.996 89.7378L324.437 175.334L292.683 218.132L291.303 196.043C272.895 231.938 263.231 249.885 262.311 249.885C261.39 249.885 250.345 260.01 229.177 280.258L222.274 295.444C216.751 300.046 213.53 301.427 212.61 299.586C211.689 297.745 197.423 271.514 169.812 220.893L149.103 160.147L128.394 121.491L111.827 64.8873L88.3572 0L34.5145 5.52233C34.5145 5.52233 25.7709 3.68155 8.28349 0Z"/>
 </g><g id="Letter x">
  <path id="shape3" transform="translate(376.899, 474.23)" fill="url(#gradient4)" fill-rule="evenodd" stroke="#000000" stroke-width="1.41732529000" d="M1.38058 11.0447C2.30097 11.0447 10.8146 9.20388 26.9213 5.52233L53.8427 0L73.1708 3.45145L105.615 41.4175L131.155 91.1184L176.714 13.8058L203.636 4.83204L247.814 5.52233L257.478 15.1864L246.434 35.8951C224.805 56.6039 213.76 67.1883 213.3 67.6485C212.84 68.1087 202.485 80.764 182.237 105.615C180.856 111.137 180.626 114.128 181.546 114.588C182.467 115.048 187.759 121.491 197.423 133.916L213.3 162.218L221.583 161.528C234.469 173.953 241.142 180.396 241.602 180.856C242.292 181.546 231.938 194.662 231.247 194.662C230.787 194.662 214.22 195.813 181.546 198.113C170.502 185.688 164.98 179.246 164.98 178.785C164.98 178.095 162.218 167.05 160.838 167.741C159.917 168.201 156.926 168.431 151.864 168.431L144.961 151.864L131.155 153.245C121.951 164.749 117.119 170.962 116.659 171.882C115.969 173.263 96.6407 193.972 95.9504 194.662C95.4902 195.122 91.3485 197.423 83.5252 201.565L11.7349 195.352L12.4252 182.927L25.5408 171.882L57.2941 136.678L84.2155 113.208L45.5592 71.1L31.7534 53.1524L0 22.0893C0 22.0893 0.460194 18.4078 1.38058 11.0447Z"/>
  <path id="shape4" transform="translate(407.272, 492.868)" fill="url(#gradient5)" fill-rule="evenodd" stroke="#000000" stroke-width="1.41732529000" d="M0 8.28349L14.4961 1.38058L35.8951 0L50.3912 13.8058C67.8786 51.5417 77.0825 69.9495 78.0029 69.0291C78.9233 68.1087 88.1271 77.3126 105.615 96.6407L140.129 46.2495L146.342 33.134L169.121 8.28349L198.113 13.1155L153.935 62.8165L126.323 91.8087L153.245 128.394L173.263 156.006C168.201 161.988 165.44 164.98 164.98 164.98C164.519 164.98 158.077 162.218 145.651 156.696L112.517 113.898L92.499 121.491L73.8611 141.51L47.6301 168.431L18.6379 169.121L10.3544 160.147L24.8505 144.271L60.0553 111.827L73.1708 104.234L71.1 84.2155L50.3912 68.3388L26.2311 40.0369L17.9476 27.6116C17.9476 27.6116 11.965 21.1689 0 8.28349Z"/>
 </g><g id="kek">
  <path id="shape5" transform="translate(73.1708, 71.7902)" fill="url(#gradient6)" fill-rule="evenodd" stroke="#000000" stroke-width="1.41732529000" d="M5.52233 35.8951L15.1864 12.4252L51.0815 4.14175L85.5961 6.90291L160.147 0L227.796 8.28349C287.621 4.60194 317.994 3.22136 318.914 4.14175C319.835 5.06213 331.34 6.44271 353.429 8.28349L358.951 19.3281L412.794 8.28349L472.159 13.8058L537.046 17.9476L528.763 1.38058L560.516 2.76116C578.004 7.3631 587.207 9.66407 588.128 9.66407C589.508 9.66407 611.598 53.8427 610.217 55.2233C608.837 56.6039 600.553 80.0737 599.172 81.4543C597.792 82.8349 593.65 103.544 595.031 107.685C595.951 110.447 590.429 96.6407 578.464 66.2679C563.738 50.6213 555.454 42.3378 553.613 41.4175C551.772 40.4971 540.268 38.6563 519.099 35.8951L473.54 27.6116L444.547 26.2311L400.369 27.6116L372.757 33.134L298.206 31.7534L237.46 33.134L212.61 24.8505L143.58 35.8951L48.3204 38.6563L31.7534 45.5592L26.2311 80.0737C22.5495 122.412 21.1689 144.961 22.0893 147.722C23.0097 150.483 23.0097 176.254 22.0893 225.035L26.2311 281.639C28.0718 310.171 28.532 325.817 27.6116 328.578C26.2311 332.72 24.8505 378.279 26.2311 382.421C27.1514 385.182 26.6912 413.254 24.8505 466.637L19.3281 572.941L40.0369 577.083L60.7456 599.172C75.4718 607.456 83.2951 611.598 84.2155 611.598C85.1359 611.598 100.782 613.438 131.155 617.12L216.751 610.217L226.415 622.642L258.169 624.023L327.198 625.404L324.437 636.448C259.089 632.767 225.955 631.386 225.035 632.306C224.114 633.227 208.008 632.306 176.714 629.545C134.377 622.182 112.748 618.501 111.827 618.501C110.907 618.501 96.6407 616.66 69.0291 612.978L24.8505 601.934L0 585.367L8.28349 556.374C7.3631 489.186 6.90291 455.132 6.90291 454.211C6.90291 453.291 6.44271 437.184 5.52233 405.891L12.4252 365.854L8.28349 323.056L6.90291 284.4L0 269.213L4.14175 183.617L5.52233 135.297L9.66407 84.2155C9.66407 84.2155 8.28349 68.1087 5.52233 35.8951Z"/>
 </g>
</svg>
